# xmcd CD database file
#
# Track frame offsets:
#	150
#	15313
#	29748
#	44430
#	62097
#	74923
#	84892
#	96973
#	116488
#	134622
#	160350
#	176355
#
# Disc length: 2600 seconds
#
# Revision: 0
# Processed by: cddbd v1.5.1PL0 Copyright (c) Steve Scherf et al.
# Submitted via: CDex 1.51
#
DISCID=a50a260c
DTITLE=Various Artist - アイト青春のフォーク・ベスト　〜女性ボーカル編〜
DYEAR=1900
DGENRE=Folk
TTITLE0=時には母のない子のように/カルメン・マキ
TTITLE1=秋でもないのに/ホンダ路津子
TTITLE2=知床旅情/加藤登紀子
TTITLE3=この広い野原いっぱい/森山良子
TTITLE4=花と小父さん/伊東きよ子
TTITLE5=今日の日はさようなら/ホンダ路津子
TTITLE6=翼をください/赤い鳥
TTITLE7=少女/五輪真弓
TTITLE8=卒業写真/ハイ・ファイ・セット
TTITLE9=愛する人に歌わせないで/森山良子
TTITLE10=冬が来る前に/紙ふうせん
TTITLE11=恋人よ/五輪真弓
EXTD=
EXTT0=
EXTT1=
EXTT2=
EXTT3=
EXTT4=
EXTT5=
EXTT6=
EXTT7=
EXTT8=
EXTT9=
EXTT10=
EXTT11=
PLAYORDER=
